# AST/ASF file generated using VICON BodyLanguage
# -----------------------------------------------
:version 1.10
:name VICON
:units
  mass 1.0
  length 0.45
  angle deg
:documentation
   .ast/.asf automatically generated from VICON data using
   VICON BodyBuilder and BodyLanguage model FoxedUp or BRILLIANT.MOD
:root
   order TX TY TZ RX RY RZ
   axis XYZ
   position 0 0 0  
   orientation 0 0 0 
:bonedata
  begin
     id 1 
     name lhipjoint
     direction 0.643824 -0.71708 0.266994 
     length 2.52133 
     axis 0 0 0  XYZ
  end
  begin
     id 2 
     name lfemur
     direction 0.34202 -0.939693 0  
     length 7.51824  
     axis 0 0 20  XYZ
    dof rx ry rz
    limits (-160.0 20.0)
           (-70.0 70.0)
           (-60.0 70.0)
  end
  begin
     id 3 
     name ltibia
     direction 0.34202 -0.939693 0   
     length 7.3685   
     axis 0 0 20   XYZ
    dof rx
    limits (-10.0 170.0)
  end
  begin
     id 4 
     name lfoot
     direction 0.105419 -0.289636 0.951314   
     length 2.20972   
     axis -90 7.62852e-016 20   XYZ
    dof rx rz
    limits (-45.0 90.0)
           (-70.0 20.0)
  end
  begin
     id 5 
     name ltoes
     direction 1.53549e-011 -4.21833e-011 1   
     length 1.10139   
     axis -90 7.62852e-016 20   XYZ
    dof rx
    limits (-90.0 20.0)
  end
  begin
     id 6 
     name rhipjoint
     direction -0.608823 -0.743445 0.276811   
     length 2.43192  
     axis 0 0 0  XYZ 
  end
  begin
     id 7 
     name rfemur
     direction -0.34202 -0.939693 0   
     length 7.69715   
     axis 0 0 -20   XYZ
    dof rx ry rz
    limits (-160.0 20.0)
           (-70.0 70.0)
           (-70.0 60.0)
  end
  begin
     id 8 
     name rtibia
     direction -0.34202 -0.939693 0   
     length 7.44924   
     axis 0 0 -20   XYZ
    dof rx
    limits (-10.0 170.0)
 end
 begin
     id 9 
     name rfoot
     direction -0.103614 -0.284677 0.953007   
     length 2.22623  
     axis -90 -7.62852e-016 -20   XYZ
    dof rx rz
    limits (-45.0 90.0)
           (-20.0 70.0)
  end
  begin
     id 10 
     name rtoes
     direction -1.53537e-011 -4.22026e-011 1   
     length 1.11   
     axis -90 -7.62852e-016 -20   XYZ
    dof rx
    limits (-90.0 20.0)
  end
  begin
     id 11 
     name lowerback
     direction -0.0101212 0.99662 -0.0815298   
     length 2.08277   
     axis 0 0 0   XYZ
    dof rx ry rz
    limits (-20.0 45.0)
           (-30.0 30.0)
           (-30.0 30.0)
  end
  begin
     id 12 
     name upperback
     direction 0.024314 0.999591 -0.0150645   
     length 2.08524   
     axis 0 0 0   XYZ
    dof rx ry rz
    limits (-20.0 45.0)
           (-30.0 30.0)
           (-30.0 30.0)
  end
  begin
     id 13 
     name thorax
     direction 0.0285959 0.999323 0.0231357   
     length 2.09645   
     axis 0 0 0   XYZ
    dof rx ry rz
    limits (-20.0 45.0)
           (-30.0 30.0)
           (-30.0 30.0)
  end
  begin
     id 14 
     name lowerneck
     direction -0.065512 0.979301 0.191515   
     length 1.63798   
     axis 0 0 0   XYZ
    dof rx ry rz
    limits (-20.0 45.0)
           (-30.0 30.0)
           (-30.0 30.0)
  end
  begin
     id 15 
     name upperneck
     direction 0.0498479 0.98191 -0.182667   
     length 1.68731   
     axis 0 0 0   XYZ
    dof rx ry rz
    limits (-20.0 45.0)
           (-30.0 30.0)
           (-30.0 30.0)
  end
  begin
     id 16
     name head
     direction 0.0230358 0.996257 -0.0833175  
     length 1.69785  
     axis 0 0 0   XYZ
    dof rx ry rz
    limits (-20.0 45.0)
           (-30.0 30.0)
           (-30.0 30.0)
  end
  begin
     id 17 
     name lclavicle
     direction 0.967963 0.201165 -0.150269  
     length 3.63976  
     axis 0 0 0   XYZ
    dof ry rz
    limits (-20.0 10.0)
           (0.0 20.0)
  end
  begin
     id 18 
     name lhumerus
     direction 1 -4.48954e-011 -2.92837e-028   
     length 5.32462   
     axis 180 -30 -90   XYZ
    dof rx ry rz
    limits (-60.0 90.0)
           (-90.0 90.0)
           (-90.0 90.0)
  end
  begin
     id 19
     name lradius
     direction 1 -4.48958e-011 -6.39511e-027   
     length 3.48402   
     axis 180 -30 -90   XYZ
    dof rx
    limits (-10.0 170.0)
  end
  begin
     id 20
     name lwrist
     direction 1 -4.48975e-011 -1.1413e-026   
     length 1.74201   
     axis 6.88575e-015 90 90   XYZ
    dof ry
    limits (-180.0 0.0)
 end
  begin
     id 21 
     name lhand
     direction 1 -4.48899e-011 -2.28192e-026   
     length 0.572476   
     axis 1.45643e-014 90 90   XYZ
    dof rx rz
    limits (-90.0 90.0)
           (-45.0 45.0)
  end
  begin
     id 22 
     name lfingers
     direction 1 -4.49155e-011 -4.5684e-026   
     length 0.461545   
     axis 2.91283e-014 90 90   XYZ
    dof rx
    limits (0.0 90.0)
  end
  begin
     id 23
     name lthumb
     direction 0.707107 -6.34943e-011 0.707107   
     length 0.662688   
     axis -90 45 -2.25915e-014   XYZ
    dof rx rz
    limits (-45.0 45.0)
           (-45.0 45.0)
  end
  begin
     id 24 
     name rclavicle
     direction -0.964103 0.264019 -0.0282629   
     length 3.54491  
     axis 0 0 0   XYZ 
    dof ry rz
    limits (-10.0 20.0)
           (-20.0 0.0)
  end
  begin
     id 25 
     name rhumerus
     direction -1 -4.48964e-011 -2.45032e-027  
     length 5.33589   
     axis 180 30 90   XYZ
    dof rx ry rz
    limits (-90.0 60.0)
           (-90.0 90.0)
           (-90.0 90.0)
  end
  begin
     id 26 
     name rradius
     direction -1 -4.48987e-011 -1.55093e-027   
     length 3.64134   
     axis 180 30 90   XYZ
    dof rx
    limits (-10.0 170.0)
  end
  begin
     id 27 
     name rwrist
     direction -1 -4.4897e-011 -1.14128e-026   
     length 1.82067   
     axis 6.88575e-015 -90 -90   XYZ
    dof ry
    limits (-180.0 0.0)
  end
  begin
     id 28
     name rhand
     direction -1 -4.49021e-011 -2.28301e-026   
     length 0.734811   
     axis 1.45643e-014 -90 -90   XYZ
    dof rx rz
    limits (-90.0 90.0)
           (-45.0 45.0)
  end
  begin
     id 29
     name rfingers
     direction -1 -4.48862e-011 -4.56319e-026   
     length 0.592424   
     axis 2.91283e-014 -90 -90   XYZ
    dof rx
    limits (0.0 90.0)
  end
  begin
     id 30
     name rthumb
     direction -0.707107 -6.34978e-011 0.707107   
     length 0.850605   
     axis -90 -45 2.25915e-014   XYZ
    dof rx rz
    limits (-45.0 45.0)
           (-45.0 45.0)
  end
:hierarchy
  begin
    root lhipjoint rhipjoint lowerback
    lhipjoint lfemur
    lfemur ltibia
    ltibia lfoot
    lfoot ltoes
    rhipjoint rfemur
    rfemur rtibia
    rtibia rfoot
    rfoot rtoes
    lowerback upperback
    upperback thorax
    thorax lowerneck lclavicle rclavicle
    lowerneck upperneck
    upperneck head
    lclavicle lhumerus
    lhumerus lradius
    lradius lwrist
    lwrist lhand lthumb
    lhand lfingers
    rclavicle rhumerus
    rhumerus rradius
    rradius rwrist
    rwrist rhand rthumb
    rhand rfingers
  end

#!OML:ASF F:\VICON\USERDATA\INSTALL\rory3\rory3.ASF
:FULLY-SPECIFIED
:DEGREES
39
root -0.0460533 17.7353 13.7189 -174.689 -14.7504 -180.902
lowerback 4.18622 0.746081 -2.25664
upperback -0.0164066 0.907641 2.3134
thorax -2.4387 0.479261 3.59753
lowerneck -16.2859 1.55659 -10.587
upperneck 39.3208 1.44474 2.11794
head 16.9178 -1.96211 2.72097
rclavicle -4.77083e-015 -3.33958e-014
rhumerus -31.4925 -7.24127 -75.2494
rradius 39.2755
rwrist 17.0588
rhand -18.9392 3.13299
rfingers 7.12502
rthumb 7.3638 -26.7189
lclavicle -4.77083e-015 -3.33958e-014
lhumerus -35.1282 17.4859 81.526
lradius 22.3723
lwrist -8.3866
lhand -12.0066 27.6779
lfingers 7.12502
lthumb 14.0506 57.183
rfemur -18.8554 4.28229 18.9132
rtibia 34.5728
rfoot -16.3817 3.26254
rtoes 12.3048
lfemur -16.4147 -7.36381 -21.1391
ltibia 26.7385
lfoot -12.6322 -3.79426
ltoes -9.84758
40
root -0.0715228 17.7632 13.7127 -174.65 -14.4086 -181.081
lowerback 4.20747 0.595045 -2.54351
upperback -0.046463 0.693926 2.31228
thorax -2.46823 0.377922 3.77238
lowerneck -16.2079 1.6223 -10.6694
upperneck 39.2313 1.4921 2.26281
head 16.8386 -1.93473 2.80553
rclavicle -1.95803e-014 -1.27222e-014
rhumerus -31.3446 -7.4753 -75.1772
rradius 39.187
rwrist 17.0448
rhand -19.4734 2.78149
rfingers 7.12502
rthumb 6.84821 -27.0877
lclavicle -1.95803e-014 -1.27222e-014
lhumerus -35.1632 17.7038 81.3105
lradius 21.8546
lwrist -9.05401
lhand -12.0227 27.663
lfingers 7.12502
lthumb 14.0352 57.1691
rfemur -18.7733 4.44715 18.6103
rtibia 34.4872
rfoot -16.2656 3.45579
rtoes 13.0529
lfemur -16.3102 -7.13931 -21.4447
ltibia 26.7974
lfoot -12.6836 -3.60397
ltoes -7.46158
41
root -0.0948171 17.7207 13.7095 -174.624 -14.0824 -181.182
lowerback 4.23672 0.426704 -2.78797
upperback -0.104382 0.45884 2.34294
thorax -2.52693 0.266343 3.95795
lowerneck -15.9988 1.67953 -10.7447
upperneck 39.0762 1.53099 2.32343
head 16.695 -1.91962 2.8457
rclavicle -1.63997e-014 8.74653e-015
rhumerus -30.9181 -7.89711 -75.1071
rradius 38.7813
rwrist 17.1796
rhand -20.1646 2.55369
rfingers 7.12502
rthumb 6.18086 -27.3361
lclavicle -1.63997e-014 8.74653e-015
lhumerus -35.0854 18.1849 80.9892
lradius 21.2188
lwrist -9.98453
lhand -11.8571 27.7633
lfingers 7.12502
lthumb 14.1947 57.2583
rfemur -18.8283 4.33462 18.5279
rtibia 34.5378
rfoot -15.9724 3.7748
rtoes 13.7809
lfemur -16.2548 -7.00032 -21.6453
ltibia 26.7248
lfoot -12.6643 -3.52238
ltoes -5.2775
42
root -0.118354 17.7212 13.7051 -174.636 -13.7861 -181.423
lowerback 4.32798 0.278367 -3.12107
upperback -0.100641 0.243722 2.2996
thorax -2.55652 0.164693 4.11577
lowerneck -15.9997 1.70563 -10.6962
upperneck 39.0143 1.54121 2.32452
head 16.6602 -1.90926 2.83693
rclavicle 8.24956e-015 -1.19271e-014
rhumerus -30.6258 -8.4838 -75.0063
rradius 38.5375
rwrist 17.1653
rhand -20.2224 2.30221
rfingers 7.12502
rthumb 6.12513 -27.5892
lclavicle 8.24956e-015 -1.19271e-014
lhumerus -34.7819 18.8048 80.5925
lradius 20.4959
lwrist -11.0152
lhand -11.6412 27.9919
lfingers 7.12502
lthumb 14.4027 57.4722
rfemur -18.8211 4.49442 18.2024
rtibia 34.5918
rfoot -16.0531 3.67009
rtoes 12.2011
lfemur -16.1159 -6.77691 -21.9874
ltibia 26.7373
lfoot -12.8572 -3.74642
ltoes -4.75294
43
root -0.143129 17.7464 13.702 -174.461 -13.294 -181.526
lowerback 4.16676 0.215552 -3.3444
upperback -0.127606 0.15462 2.29012
thorax -2.48613 0.122948 4.23804
lowerneck -16.0867 1.72794 -10.6683
upperneck 39.0111 1.52384 2.43813
head 16.6774 -1.89951 2.87992
rclavicle 8.34896e-015 -4.77083e-015
rhumerus -30.4754 -9.02064 -74.9036
rradius 38.4247
rwrist 17.0109
rhand -20.0944 1.891
rfingers 7.12502
rthumb 6.2487 -27.9968
lclavicle 8.34896e-015 -4.77083e-015
lhumerus -34.5426 19.1852 80.3267
lradius 20.0155
lwrist -11.8919
lhand -11.3297 27.8486
lfingers 7.12502
lthumb 14.7029 57.3072
rfemur -19.2809 5.00739 17.8792
rtibia 34.8877
rfoot -16.3721 3.35619
rtoes 10.3866
lfemur -16.0516 -6.1497 -22.234
ltibia 26.4992
lfoot -13.0483 -3.79645
ltoes -5.37304
44
root -0.16856 17.7499 13.7029 -174.125 -12.4968 -181.348
lowerback 3.77649 0.255913 -3.29519
upperback -0.221485 0.222234 2.34985
thorax -2.37048 0.155627 4.26765
lowerneck -16.1053 1.76675 -10.7514
upperneck 39.0069 1.52375 2.62493
head 16.6723 -1.89105 2.97687
rclavicle -3.3694e-014 -4.77083e-015
rhumerus -30.4089 -9.54122 -74.7882
rradius 38.329
rwrist 16.9023
rhand -20.3402 2.89063
rfingers 7.12502
rthumb 6.01136 -27.0041
lclavicle -3.3694e-014 -4.77083e-015
lhumerus -34.3837 19.3348 80.1765
lradius 19.7163
lwrist -12.4507
lhand -10.953 27.2322
lfingers 7.12502
lthumb 15.0658 56.664
rfemur -19.9521 5.39834 17.8947
rtibia 35.2277
rfoot -16.4263 3.57165
rtoes 9.62173
lfemur -16.2029 -5.42993 -22.1201
ltibia 26.0832
lfoot -12.9261 -3.96493
ltoes -5.00631
45
root -0.196338 17.7563 13.7028 -173.936 -11.8668 -181.242
lowerback 3.57477 0.244377 -3.27281
upperback -0.338773 0.213997 2.37152
thorax -2.37734 0.153833 4.278
lowerneck -15.8728 1.82454 -10.6969
upperneck 38.941 1.50666 2.65646
head 16.5777 -1.89414 2.97058
rclavicle -6.4605e-015 1.51076e-014
rhumerus -30.6521 -9.89141 -74.7026
rradius 38.4563
rwrist 16.6124
rhand -20.522 3.67947
rfingers 7.12502
rthumb 5.8359 -26.2202
lclavicle -6.4605e-015 1.51076e-014
lhumerus -34.4508 19.3304 79.9391
lradius 19.5192
lwrist -12.818
lhand -10.62 26.8126
lfingers 7.12502
lthumb 15.3865 56.22
rfemur -20.4135 5.69589 17.8397
rtibia 35.5844
rfoot -16.4503 3.7995
rtoes 9.13765
lfemur -16.1919 -4.91576 -22.081
ltibia 25.6822
lfoot -12.806 -4.1736
ltoes -5.52557
46
root -0.225091 17.7514 13.7029 -173.977 -11.4855 -181.285
lowerback 3.60434 0.21055 -3.33388
upperback -0.377726 0.166207 2.31086
thorax -2.42942 0.133124 4.25232
lowerneck -15.5877 1.83964 -10.4279
upperneck 38.8627 1.39102 2.56214
head 16.4779 -1.92236 2.85274
rclavicle -2.62396e-014 -2.06736e-014
rhumerus -30.969 -10.3276 -74.6399
rradius 38.5943
rwrist 16.214
rhand -20.7247 2.88763
rfingers 7.12502
rthumb 5.64018 -27.0173
lclavicle -2.62396e-014 -2.06736e-014
lhumerus -34.436 19.0627 79.774
lradius 19.3703
lwrist -13.224
lhand -10.5486 26.7842
lfingers 7.12502
lthumb 15.4553 56.1863
rfemur -20.4831 5.8594 17.658
rtibia 35.7692
rfoot -16.4303 3.97837
rtoes 9.20886
lfemur -16.0709 -4.46031 -22.2533
ltibia 25.6435
lfoot -12.9615 -4.339
ltoes -6.49919
47
root -0.250742 17.7473 13.7022 -173.917 -11.0579 -181.344
lowerback 3.48958 0.19789 -3.46519
upperback -0.372781 0.147529 2.27302
thorax -2.35829 0.12438 4.28815
lowerneck -15.5305 1.8172 -10.293
upperneck 38.8117 1.27593 2.59218
head 16.4461 -1.94622 2.8199
rclavicle 1.77912e-014 1.66979e-014
rhumerus -31.0963 -10.8126 -74.5915
rradius 38.6329
rwrist 15.8606
rhand -20.9064 2.11868
rfingers 7.12502
rthumb 5.46475 -27.7909
lclavicle 1.77912e-014 1.66979e-014
lhumerus -34.0999 18.6256 79.8594
lradius 19.2426
lwrist -13.6064
lhand -10.5659 27.139
lfingers 7.12502
lthumb 15.4386 56.5424
rfemur -20.686 6.14358 17.4634
rtibia 35.9755
rfoot -16.4514 4.02921
rtoes 9.12855
lfemur -16.0413 -4.01851 -22.4335
ltibia 25.5668
lfoot -13.0236 -4.41589
ltoes -6.32214
48
root -0.278254 17.7465 13.7004 -173.71 -10.5417 -181.323
lowerback 3.22036 0.170938 -3.49228
upperback -0.399954 0.118431 2.25397
thorax -2.23205 0.108161 4.2846
lowerneck -15.621 1.80859 -10.2591
upperneck 38.8173 1.21681 2.6824
head 16.4741 -1.95655 2.84396
rclavicle -1.88845e-015 5.40694e-014
rhumerus -31.1418 -11.2003 -74.5824
rradius 38.5898
rwrist 15.5271
rhand -21.1515 2.19535
rfingers 7.12502
rthumb 5.22806 -27.7202
lclavicle -1.88845e-015 5.40694e-014
lhumerus -33.7885 18.1205 79.984
lradius 19.3088
lwrist -13.6662
lhand -10.5669 27.5142
lfingers 7.12502
lthumb 15.4376 56.9177
rfemur -21.0986 6.4621 17.3358
rtibia 36.2124
rfoot -16.4449 4.06919
rtoes 9.08248
lfemur -16.1419 -3.65137 -22.5056
ltibia 25.4455
lfoot -13.0438 -4.42211
ltoes -5.69359
49
root -0.30889 17.7474 13.6964 -173.617 -10.1243 -181.308
lowerback 3.08246 0.106335 -3.47128
upperback -0.395172 0.0367863 2.24256
thorax -2.14131 0.064977 4.2644
lowerneck -15.8456 1.79707 -10.2726
upperneck 38.9619 1.1876 2.71277
head 16.6087 -1.98506 2.85658
rclavicle -2.14687e-014 -3.97569e-015
rhumerus -31.2218 -11.3936 -74.5911
rradius 38.5826
rwrist 15.1995
rhand -21.485 2.12969
rfingers 7.12502
rthumb 4.90603 -27.7935
lclavicle -2.14687e-014 -3.97569e-015
lhumerus -33.5304 17.4983 80.1425
lradius 19.4846
lwrist -13.3853
lhand -10.4018 27.6318
lfingers 7.12502
lthumb 15.5967 57.023
rfemur -21.3176 6.6719 17.236
rtibia 36.3272
rfoot -16.4343 4.04411
rtoes 9.6746
lfemur -16.2253 -3.40697 -22.5728
ltibia 25.6314
lfoot -13.2161 -4.45624
ltoes -4.86875
50
root -0.336772 17.7502 13.6904 -173.671 -9.74584 -181.503
lowerback 3.10325 0.0443902 -3.659
upperback -0.347085 -0.0525601 2.14112
thorax -2.09448 0.0213188 4.26952
lowerneck -16.0012 1.79863 -10.2461
upperneck 39.1007 1.12245 2.8112
head 16.7249 -2.01344 2.88541
rclavicle 3.47873e-014 3.97569e-015
rhumerus -31.2965 -11.5699 -74.6959
rradius 38.5489
rwrist 14.9195
rhand -21.1667 1.04659
rfingers 7.12502
rthumb 5.21338 -28.8693
lclavicle 3.47873e-014 3.97569e-015
lhumerus -33.2777 16.795 80.2507
lradius 19.7359
lwrist -12.9751
lhand -10.5084 27.7588
lfingers 7.12502
lthumb 15.4941 57.158
rfemur -21.3383 6.72683 16.9958
rtibia 36.44
rfoot -16.386 3.82056
rtoes 9.92333
lfemur -16.1676 -3.04663 -22.8877
ltibia 25.9189
lfoot -13.5076 -4.58843
ltoes -4.19256
51
root -0.360916 17.6966 13.6856 -173.637 -9.32447 -181.756
lowerback 3.0569 0.00683548 -3.93833
upperback -0.374071 -0.110287 2.04562
thorax -2.09031 -0.00287603 4.33122
lowerneck -15.901 1.83754 -10.244
upperneck 39.1305 1.06488 2.95992
head 16.7154 -2.03047 2.93755
rclavicle 3.27995e-014 -1.59028e-015
rhumerus -31.4548 -11.7383 -74.7339
rradius 38.4367
rwrist 14.6441
rhand -20.5401 -0.235792
rfingers 7.12502
rthumb 5.81833 -30.1359
lclavicle 3.27995e-014 -1.59028e-015
lhumerus -33.1343 16.0844 80.3781
lradius 20.0409
lwrist -12.4726
lhand -10.804 27.8491
lfingers 7.12502
lthumb 15.2093 57.2701
rfemur -21.3952 6.68907 16.7132
rtibia 36.586
rfoot -16.367 4.22171
rtoes 12.701
lfemur -16.2451 -2.55747 -23.3066
ltibia 26.1574
lfoot -13.8518 -4.5942
ltoes -4.20055
52
root -0.386582 17.6743 13.6825 -173.574 -8.95857 -181.911
lowerback 3.0436 -0.0580998 -4.10002
upperback -0.440222 -0.202098 1.97416
thorax -2.14134 -0.0436612 4.35316
lowerneck -15.7565 1.89098 -10.1877
upperneck 39.1123 1.04117 3.03273
head 16.668 -2.03244 2.95078
rclavicle 5.12864e-014 1.59028e-015
rhumerus -31.6412 -11.8298 -74.777
rradius 38.2499
rwrist 14.4007
rhand -20.8017 0.0983689
rfingers 7.12502
rthumb 5.56578 -29.8085
lclavicle 5.12864e-014 1.59028e-015
lhumerus -33.0064 15.3685 80.4803
lradius 20.4763
lwrist -11.776
lhand -10.8 28.2497
lfingers 7.12502
lthumb 15.2131 57.6703
rfemur -21.6509 6.72999 16.4858
rtibia 36.9883
rfoot -16.8859 4.37502
rtoes 12.2451
lfemur -16.1618 -2.30036 -23.588
ltibia 25.9855
lfoot -13.925 -4.53289
ltoes -4.69298
